<?xml version="1.0" standalone="no"?>
<!DOCTYPE svg PUBLIC "-//W3C//DTD SVG 20010904//EN"
 "http://www.w3.org/TR/2001/REC-SVG-20010904/DTD/svg10.dtd">
<svg version="1.0" xmlns="http://www.w3.org/2000/svg"
 width="754.000000pt" height="754.000000pt" viewBox="0 0 754.000000 754.000000"
 preserveAspectRatio="xMidYMid meet">
<metadata>
Created by potrace 1.11, written by Peter Selinger 2001-2013
</metadata>
<g transform="translate(0.000000,754.000000) scale(0.100000,-0.100000)"
fill="#000000" stroke="none">
<path d="M7007 5814 c-1 -1 -146 -5 -322 -8 -176 -4 -396 -9 -490 -11 -93 -2
-298 -7 -455 -10 -157 -3 -368 -8 -470 -10 -102 -2 -320 -6 -485 -10 -165 -3
-381 -8 -480 -10 -242 -6 -676 -15 -915 -20 -107 -2 -319 -7 -470 -10 -151 -3
-367 -8 -480 -10 -186 -4 -471 -10 -930 -20 -91 -2 -304 -7 -475 -10 -171 -4
-368 -8 -440 -10 -71 -2 -212 -4 -312 -6 -101 -1 -183 -5 -183 -8 0 -3 9 -64
20 -136 11 -71 23 -148 25 -170 3 -22 9 -65 15 -95 5 -30 12 -75 15 -100 3
-25 10 -70 15 -100 5 -30 12 -75 15 -100 3 -25 10 -67 15 -95 5 -27 12 -68 14
-90 3 -22 9 -69 15 -105 5 -36 13 -85 16 -110 3 -25 8 -56 10 -70 3 -14 7 -38
9 -55 3 -16 7 -43 10 -60 6 -37 17 -113 21 -140 1 -11 5 -38 8 -60 4 -22 9
-56 11 -75 3 -19 17 -111 31 -205 14 -93 27 -181 29 -195 2 -14 9 -54 14 -90
6 -36 13 -81 16 -100 18 -125 38 -258 41 -275 2 -11 7 -40 10 -65 3 -25 7 -58
10 -75 3 -16 7 -43 10 -60 3 -16 8 -50 11 -75 3 -25 7 -56 10 -70 11 -65 33
-210 38 -250 4 -25 8 -54 10 -65 3 -11 5 -23 5 -28 1 -4 148 -5 329 -2 180 3
460 7 622 10 558 9 956 15 1265 20 1280 21 1715 27 1715 22 0 -5 -44 -205 -64
-287 -96 -404 -135 -580 -128 -580 4 0 109 92 272 236 33 30 287 253 323 284
9 8 32 29 51 45 37 34 138 123 176 155 14 12 54 47 89 78 98 87 97 87 186 88
44 1 253 4 465 8 212 3 554 9 760 12 206 4 414 7 463 7 48 1 87 4 88 7 3 21 8
95 13 201 4 68 9 149 11 179 2 30 6 111 10 180 3 69 8 152 10 185 5 69 14 233
20 350 10 190 15 274 20 330 3 33 8 112 11 175 3 63 7 142 9 175 2 33 7 112
10 175 3 63 8 142 10 175 2 33 7 110 10 170 3 61 8 142 10 180 3 39 7 113 10
165 2 52 7 129 9 170 3 41 8 125 11 185 4 61 8 125 10 142 l3 33 -180 -3 c-99
-1 -180 -3 -181 -3z"/>
</g>
</svg>
